<svg width="2300" height="2300" viewBox="0 0 2300 2300" fill="none" xmlns="http://www.w3.org/2000/svg">
<g clip-path="url(#clip0_1643_1019)">
<rect y="1495" width="1148" height="805" fill="#D9D9D9" fill-opacity="0.3"/>
<rect y="1150" width="784" height="345" fill="#D9D9D9" fill-opacity="0.3"/>
<path d="M1078.75 1629.75C976.083 1629.75 886.833 1609.33 811 1568.5C736.333 1526.5 678 1469.33 636 1397C594 1324.67 573 1242.42 573 1150.25C573 1055.75 594.583 972.333 637.75 900C680.917 826.5 740.417 769.333 816.25 728.5C892.083 686.5 981.333 665.5 1084 665.5C1142.33 665.5 1196 672.5 1245 686.5C1295.17 700.5 1338.92 719.167 1376.25 742.5C1414.75 765.833 1445.67 791.5 1469 819.5C1492.33 846.333 1506.92 873.167 1512.75 900L1446.25 905.25V684.75H1724.5V1614H1441V1365.5L1498.75 1381.25C1495.25 1411.58 1481.25 1441.33 1456.75 1470.5C1433.42 1499.67 1402.5 1526.5 1364 1551C1326.67 1574.33 1283.5 1593.58 1234.5 1608.75C1185.5 1622.75 1133.58 1629.75 1078.75 1629.75ZM1150.5 1393.5C1212.33 1393.5 1265.42 1383.58 1309.75 1363.75C1354.08 1342.75 1388.5 1314.17 1413 1278C1437.5 1240.67 1449.75 1198.08 1449.75 1150.25C1449.75 1100.08 1437.5 1056.92 1413 1020.75C1388.5 984.583 1354.08 956 1309.75 935C1265.42 914 1212.33 903.5 1150.5 903.5C1091 903.5 1038.5 914 993 935C948.667 956 913.667 984.583 888 1020.75C863.5 1056.92 851.25 1100.08 851.25 1150.25C851.25 1198.08 863.5 1240.67 888 1278C913.667 1314.17 948.667 1342.75 993 1363.75C1038.5 1383.58 1091 1393.5 1150.5 1393.5Z" fill="white"/>
</g>
<defs>
<clipPath id="clip0_1643_1019">
<rect width="2300" height="2300" fill="white"/>
</clipPath>
</defs>
</svg>
