<svg width="1024" height="1024" viewBox="0 0 1024 1024" fill="none" xmlns="http://www.w3.org/2000/svg">
<g clip-path="url(#clip0_3547_1810)">
<rect width="1024" height="1024" fill="#92695B"/>
<path d="M645.6 944.2C595.467 944.2 554.4 934.6 522.4 915.4C490.4 896.2 466.933 871.133 452 840.2C438.133 809.267 431.2 776.733 431.2 742.6C431.2 697.8 441.333 661.533 461.6 633.8C481.867 605 508 582.067 540 565C573.067 546.867 607.733 531.933 644 520.2C680.267 508.467 714.4 497.267 746.4 486.6C779.467 474.867 806.133 461.533 826.4 446.6C846.667 430.6 856.8 410.333 856.8 385.8V243.4C856.8 226.333 853.6 207.667 847.2 187.4C841.867 167.133 831.2 149.533 815.2 134.6C799.2 119.667 775.2 112.2 743.2 112.2C726.133 112.2 709.6 114.867 693.6 120.2C678.667 124.467 665.333 130.867 653.6 139.4C690.933 153.267 718.133 173 735.2 198.6C752.267 223.133 760.8 250.333 760.8 280.2C760.8 322.867 745.867 356.467 716 381C686.133 405.533 650.933 417.8 610.4 417.8C567.733 417.8 534.667 404.467 511.2 377.8C487.733 351.133 476 318.067 476 278.6C476 245.533 484 217.8 500 195.4C517.067 171.933 542.133 150.6 575.2 131.4C607.2 113.267 645.6 100.467 690.4 92.9999C735.2 84.4666 782.133 80.1999 831.2 80.1999C883.467 80.1999 932 85.5333 976.8 96.2C1021.6 105.8 1060 127.133 1092 160.2C1114.4 183.667 1128.8 213 1135.2 248.2C1141.6 283.4 1144.8 328.733 1144.8 384.2V813C1144.8 839.667 1146.4 857.8 1149.6 867.4C1153.87 877 1160.8 881.8 1170.4 881.8C1178.93 881.8 1186.93 879.133 1194.4 873.8C1202.93 868.467 1210.93 863.133 1218.4 857.8L1234.4 885C1210.93 905.267 1181.6 920.2 1146.4 929.8C1112.27 939.4 1076 944.2 1037.6 944.2C991.733 944.2 956 938.867 930.4 928.2C905.867 916.467 888.267 901.533 877.6 883.4C868 864.2 862.667 843.933 861.6 822.6C839.2 857.8 810.933 887.133 776.8 910.6C743.733 933 700 944.2 645.6 944.2ZM797.6 816.2C809.333 816.2 819.467 814.6 828 811.4C837.6 807.133 847.2 799.667 856.8 789V451.4C849.333 465.267 839.2 479.133 826.4 493C814.667 505.8 802.4 519.133 789.6 533C776.8 546.867 764.533 561.8 752.8 577.8C742.133 593.8 733.067 612.467 725.6 633.8C719.2 654.067 716 678.067 716 705.8C716 746.333 723.467 775.133 738.4 792.2C754.4 808.2 774.133 816.2 797.6 816.2Z" fill="white"/>
</g>
<defs>
<clipPath id="clip0_3547_1810">
<rect width="1024" height="1024" fill="white"/>
</clipPath>
</defs>
</svg>
