<svg width="2300" height="2300" viewBox="0 0 2300 2300" fill="none" xmlns="http://www.w3.org/2000/svg">
<g clip-path="url(#clip0_1593_757)">
<rect width="2300" height="2300" fill="black"/>
<rect x="476" y="586" width="1348" height="1128" fill="#D9D9D9" fill-opacity="0.3"/>
<rect y="1150" width="1150" height="1150" fill="#D9D9D9" fill-opacity="0.3"/>
<path d="M1068.29 1713.43C948.139 1713.43 843.691 1689.54 754.944 1641.75C667.563 1592.6 599.296 1525.7 550.144 1441.05C500.992 1356.4 476.416 1260.14 476.416 1152.28C476.416 1041.69 501.675 944.067 552.192 859.416C602.709 773.4 672.341 706.499 761.088 658.712C849.835 609.56 954.283 584.984 1074.43 584.984C1142.7 584.984 1205.5 593.176 1262.85 609.56C1321.56 625.944 1372.76 647.789 1416.45 675.096C1461.5 702.403 1497.69 732.44 1524.99 765.208C1552.3 796.611 1569.37 828.013 1576.19 859.416L1498.37 865.56V607.512H1824V1695H1492.22V1404.18L1559.81 1422.62C1555.71 1458.11 1539.33 1492.93 1510.66 1527.06C1483.35 1561.2 1447.17 1592.6 1402.11 1621.27C1358.42 1648.58 1307.9 1671.11 1250.56 1688.86C1193.22 1705.24 1132.46 1713.43 1068.29 1713.43ZM1152.26 1436.95C1224.62 1436.95 1286.74 1425.35 1338.62 1402.14C1390.51 1377.56 1430.78 1344.11 1459.46 1301.78C1488.13 1258.09 1502.46 1208.26 1502.46 1152.28C1502.46 1093.57 1488.13 1043.05 1459.46 1000.73C1430.78 958.403 1390.51 924.952 1338.62 900.376C1286.74 875.8 1224.62 863.512 1152.26 863.512C1082.62 863.512 1021.18 875.8 967.936 900.376C916.053 924.952 875.093 958.403 845.056 1000.73C816.384 1043.05 802.048 1093.57 802.048 1152.28C802.048 1208.26 816.384 1258.09 845.056 1301.78C875.093 1344.11 916.053 1377.56 967.936 1402.14C1021.18 1425.35 1082.62 1436.95 1152.26 1436.95Z" fill="white"/>
</g>
<defs>
<clipPath id="clip0_1593_757">
<rect width="2300" height="2300" fill="white"/>
</clipPath>
</defs>
</svg>
